<?xml version="1.0" encoding="utf-8"?>
<!-- Generator: Adobe Illustrator 19.2.1, SVG Export Plug-In . SVG Version: 6.00 Build 0)  -->
<svg version="1.1" id="Слой_1" xmlns="http://www.w3.org/2000/svg" xmlns:xlink="http://www.w3.org/1999/xlink" x="0px" y="0px"
	 viewBox="0 0 23.4 23.4" enable-background="new 0 0 23.4 23.4" xml:space="preserve">
<title>Shape</title>
<desc>Created with Sketch.</desc>
<g id="Page-1">
	<path id="Shape" fill="#FFFFFF" d="M18.9,0H4.5C2,0,0,2,0,4.5v14.4c0,2.5,2,4.5,4.5,4.5h14.4c2.5,0,4.5-2,4.5-4.5V4.5
		C23.4,2,21.4,0,18.9,0z M20.2,2.7h0.5v4h-4v-4C16.7,2.7,20.2,2.7,20.2,2.7z M8.4,9.3c1.2-1.6,3.4-2.2,5.2-1.3s2.7,3,2.1,4.9
		s-2.6,3.1-4.6,2.8s-3.5-2-3.5-4.1C7.6,10.9,7.9,10,8.4,9.3L8.4,9.3z M21.1,18.9c0,1.2-1,2.3-2.3,2.3H4.5c-1.2,0-2.3-1-2.3-2.3V9.3
		h3.5c-1.1,2.7-0.3,5.8,2,7.5c2.3,1.8,5.5,1.8,7.8,0s3.1-4.8,2-7.5H21v9.6H21.1z"/>
</g>
</svg>
