<?xml version="1.0" encoding="utf-8"?>
<!-- Generator: Adobe Illustrator 19.2.1, SVG Export Plug-In . SVG Version: 6.00 Build 0)  -->
<svg version="1.1" id="Layer_1" xmlns="http://www.w3.org/2000/svg" xmlns:xlink="http://www.w3.org/1999/xlink" x="0px" y="0px"
	 viewBox="0 0 283.5 29.9" enable-background="new 0 0 283.5 29.9" xml:space="preserve">
<g>
	<polygon fill="#F2F2F2" points="126.1,23 134.4,0 120.4,0 109.6,29.8 109.7,29.8 158.3,29.8 158.4,29.8 160.9,23 	"/>
	<polygon fill="#F2F2F2" points="2.5,0 0,6.8 0.1,6.8 51.2,6.8 51.3,6.8 53.8,0 	"/>
	<polygon fill="#F2F2F2" points="12.2,29.4 12.1,29.8 26.1,29.8 33.5,9.4 33.6,9.2 19.6,9.2 	"/>
	<polygon fill="#F2F2F2" points="72.1,14.9 69.6,21.7 87.3,21.7 89.7,14.9 	"/>
	<path fill="#F2F2F2" d="M101.6,0H68.4c-4.3,0-9,3.4-10.5,7.7l-8.1,22.1h14L71.4,9c0.5-1.2,1.8-2.3,3.1-2.3h19.2
		c1,0,1.5,0.8,1.2,1.8l-7.7,21.2h14L104,22l4.3-11.7C110.3,4.7,107.3,0,101.6,0"/>
	<polygon fill="#F2F2F2" points="263.1,17.3 272.6,29.8 283.5,0 269.5,0 	"/>
	<polygon fill="#F2F2F2" points="242.6,9.8 257.8,29.8 269.6,29.8 247,0 232.1,0 221.3,29.8 235.3,29.8 	"/>
	<path fill="#F2F2F2" d="M213.7,0h-33.2c-3.9,0-8.2,3-10.1,6.8h16.2h6.4h12.8c1,0,1.5,0.8,1.2,1.8l-4.4,12.2
		c-0.5,1.3-1.8,2.3-3.1,2.3h-19.2c-1,0-1.5-0.8-1.2-1.8l4.4-12h-14l-3.7,10.2c-2.1,5.8,0.9,10.4,6.6,10.4h33.2c4.3,0,9-3.4,10.5-7.7
		l4.3-11.7C222.4,4.7,219.5,0,213.7,0"/>
</g>
</svg>
