<?xml version="1.0" encoding="utf-8"?>
<!-- Generator: Adobe Illustrator 19.2.1, SVG Export Plug-In . SVG Version: 6.00 Build 0)  -->
<svg version="1.1" id="Layer_1" xmlns="http://www.w3.org/2000/svg" xmlns:xlink="http://www.w3.org/1999/xlink" x="0px" y="0px"
	 viewBox="0 0 283.4 26.7" enable-background="new 0 0 283.4 26.7" xml:space="preserve">
<g>
	<g>
		<path fill="#1B1C1C" d="M247.9,0.1h-4.5c-0.8,0-1.5,0.5-1.8,1.3l-8.7,23.9c-0.2,0.6,0.2,1.3,0.9,1.3h4.5c0.8,0,1.5-0.5,1.8-1.3
			l8.7-23.9C249,0.7,248.5,0.1,247.9,0.1z"/>
		<path fill="#1B1C1C" d="M190.1,0.1h-15.5c-5.1,0-9.6,3.2-11.3,7.9l-3.2,8.9c-1.7,4.7,1.8,9.7,6.8,9.7h15.5c5.1,0,9.6-3.2,11.3-7.9
			l3.2-8.9C198.6,5.1,195.1,0.1,190.1,0.1z M189.6,10.1l-2.4,6.6c-0.7,1.9-2.5,3.2-4.5,3.2h-13c-1.7,0-2.8-1.7-2.3-3.2l2.4-6.6
			c0.7-1.9,2.5-3.2,4.5-3.2h13C189,6.8,190.2,8.5,189.6,10.1z"/>
		<path fill="#1B1C1C" d="M282.4,0.1h-28.2c-0.8,0-1.5,0.5-1.8,1.3l-1.5,4.2c-0.2,0.6,0.2,1.3,0.9,1.3h9.5c0.7,0,1.1,0.7,0.9,1.3
			l-6.3,17.2c-0.2,0.6,0.2,1.3,0.9,1.3h4.5c0.8,0,1.5-0.5,1.8-1.3l6.3-17.2c0.3-0.8,1-1.3,1.8-1.3h8.7c0.8,0,1.5-0.5,1.8-1.3
			l1.5-4.2C283.6,0.7,283.1,0.1,282.4,0.1z"/>
		<path fill="#1B1C1C" d="M107.5,0.8l-9,10.7l-1-9.7c-0.1-1-0.9-1.7-1.9-1.7H84.7c-0.8,0-1.5,0.5-1.8,1.3l-8.7,23.9
			c-0.2,0.6,0.2,1.3,0.9,1.3h4.5c0.8,0,1.5-0.5,1.8-1.3l6.5-17.9C88,7,88.4,6.8,88.8,6.8H90c0.5,0,0.9,0.4,1,0.9l1.2,10.4
			c0.1,1,0.9,1.7,1.9,1.7h5.2c0.6,0,1.1-0.3,1.5-0.7l10.1-12c0.2-0.2,0.5-0.3,0.7-0.3h1.8c0.3,0,0.6,0.4,0.4,0.7l-6.4,17.8
			c-0.2,0.6,0.2,1.3,0.9,1.3h4.5c0.8,0,1.5-0.5,1.8-1.3l8.7-23.9c0.2-0.6-0.2-1.3-0.9-1.3h-13.5C108.4,0.1,107.8,0.3,107.5,0.8z"/>
		<path fill="#1B1C1C" d="M136.3,6.8h12.8c1.7,0,2.8,1.7,2.3,3.2l-0.1,0.3c-0.7,1.9-2.5,3.2-4.5,3.2h-11.3c-0.8,0-1.5,0.5-1.8,1.3
			l-1.5,4.2c-0.2,0.6,0.2,1.3,0.9,1.3h13.4c5.1,0,9.6-3.2,11.3-7.9l1-2.6c1.7-4.7-1.8-9.7-6.8-9.7h-15.3c-5.1,0-9.6,3.2-11.3,7.9
			l0,0l-6.3,17.3c-0.2,0.6,0.2,1.3,0.9,1.3h4.5c0.8,0,1.5-0.5,1.8-1.3l5.6-15.3l0,0C132.4,8.1,134.3,6.8,136.3,6.8z"/>
		<path fill="#1B1C1C" d="M68.7,0.1H51.8c-3.3,0-6.5,1.4-8.8,3.8L30.1,17.6c-1.4,1.5-3.3,2.3-5.3,2.3H9.9c-1.7,0-2.8-1.7-2.3-3.2
			l2.4-6.6c0.7-1.9,2.5-3.2,4.5-3.2h13.9c0.7,0,1.4,0.1,2.1,0.3c0.4,0.1,0.7,0,1-0.2l3.6-3.8c0.4-0.5,0.3-1.2-0.2-1.5
			c-1.5-0.8-3.5-1.6-5.9-1.6H14.9C9.8,0.1,5.3,3.3,3.6,8l-3.2,8.9c-1.7,4.7,1.8,9.7,6.8,9.7h18.2c3.3,0,6.5-1.4,8.8-3.8L47.1,9.1
			c1.4-1.5,3.3-2.3,5.3-2.3H66c1.7,0,2.8,1.7,2.3,3.2l-2.4,6.6c-0.7,1.9-2.5,3.2-4.5,3.2H50c-2.4,0-4-1.1-4.9-1.9
			c-0.4-0.4-1-0.3-1.3,0.1c-0.9,0.9-2.4,2.5-3.2,3.4c-0.3,0.4-0.3,0.9,0,1.3l0.1,0.1c2.3,2.4,5.5,3.8,8.8,3.8h11.6
			c5.1,0,9.6-3.2,11.3-7.9l3.2-8.9C77.2,5.1,73.7,0.1,68.7,0.1z"/>
		<path fill="#1B1C1C" d="M212.3,6.8h13.2c1.7,0,3.2,0.6,4.4,1.6c0.3,0.3,0.9,0.2,1.3-0.1l3.5-3.4c0.4-0.4,0.4-1,0.1-1.4
			C233.7,2.3,231,0,226.6,0h-13.4c-5.1,0-8.9,1.7-10.7,5.2c-0.4,0.8-0.8,1.5-1.1,2.3c-1.6,3.7,0.6,6.7,4.1,7.3
			c2.6,0.4,5.6,0.8,9.2,1.3c3.7,0.5,7,0.9,7.8,1c1.1,0.1,1.5,0.5,1.2,1.2c-0.7,1.4-1.9,1.3-4.1,1.4h-13.2c-1.7,0-3.2-0.6-4.4-1.6
			c-0.3-0.3-0.9-0.2-1.3,0.1l-3.5,3.4c-0.4,0.4-0.4,1-0.1,1.4c1.1,1.2,3.8,3.5,8.2,3.5h13.4c5.1,0,8.9-1.7,10.7-5.2
			c0.4-0.8,0.8-1.5,1.1-2.3c1.6-3.7-0.6-6.7-4.1-7.3c-2.6-0.4-5.6-0.8-9.2-1.3c-3.7-0.5-7-0.9-7.8-1c-1.1-0.1-1.5-0.5-1.2-1.2
			C208.9,6.8,210.1,6.9,212.3,6.8z"/>
	</g>
</g>
</svg>
