<?xml version="1.0" encoding="utf-8"?>
<!-- Generator: Adobe Illustrator 19.2.1, SVG Export Plug-In . SVG Version: 6.00 Build 0)  -->
<svg version="1.1" id="SvgjsSvg1008" xmlns:svgjs="http://svgjs.com/svgjs"
	 xmlns="http://www.w3.org/2000/svg" xmlns:xlink="http://www.w3.org/1999/xlink" x="0px" y="0px" viewBox="0 0 49.4 29"
	 enable-background="new 0 0 49.4 29" xml:space="preserve">
<g>
	<defs>
		<path id="SVGID_1_" d="M4.9,5.9C5.5,3.2,8.2,1,11,1h33.4c2.8,0,4.5,2.2,3.9,4.9l-3.8,17.2c-0.6,2.7-3.3,4.9-6.1,4.9H5
			c-2.8,0-4.5-2.2-3.9-4.9L4.9,5.9z"/>
	</defs>
	<clipPath id="SVGID_2_">
		<use xlink:href="#SVGID_1_"  overflow="visible"/>
	</clipPath>
	
		<path id="SvgjsPath1010" clip-path="url(#SVGID_2_)" fill="#FFFFFF" fill-opacity="0" stroke="#FF5110" stroke-width="2" stroke-miterlimit="50" stroke-dasharray="0" d="
		M4.9,5.9C5.5,3.2,8.2,1,11,1h33.4c2.8,0,4.5,2.2,3.9,4.9l-3.8,17.2c-0.6,2.7-3.3,4.9-6.1,4.9H5c-2.8,0-4.5-2.2-3.9-4.9L4.9,5.9z"/>
</g>
</svg>
