<?xml version="1.0" encoding="utf-8"?>
<!-- Generator: Adobe Illustrator 19.2.1, SVG Export Plug-In . SVG Version: 6.00 Build 0)  -->
<svg version="1.1" id="SvgjsSvg1000" xmlns:svgjs="http://svgjs.com/svgjs"
	 xmlns="http://www.w3.org/2000/svg" xmlns:xlink="http://www.w3.org/1999/xlink" x="0px" y="0px" viewBox="0 0 12 11.1"
	 enable-background="new 0 0 12 11.1" xml:space="preserve">
<path id="SvgjsPath1007" fill="#FF5110" d="M4.6,1c0.1-0.5,0.7-1,1.2-1h2.7c0.6,0,0.9,0.4,0.8,1L8.8,3.3l2.4,0c0.6,0,0.9,0.4,0.8,1
	l-0.6,2.6c-0.1,0.5-0.7,1-1.2,1l-2.3,0l-0.5,2.3c-0.1,0.5-0.7,1-1.2,1H3.5c-0.6,0-0.9-0.4-0.8-1l0.5-2.3l-2.4,0
	c-0.6,0-0.9-0.4-0.8-1l0.6-2.6c0.1-0.5,0.7-1,1.2-1l2.3,0L4.6,1z"/>
</svg>
