<?xml version="1.0" encoding="UTF-8" standalone="no"?>
<svg width="24px" height="24px" viewBox="0 0 24 24" version="1.1" xmlns="http://www.w3.org/2000/svg" xmlns:xlink="http://www.w3.org/1999/xlink">
    <!-- Generator: Sketch 3.8.3 (29802) - http://www.bohemiancoding.com/sketch -->
    <title>Shape</title>
    <desc>Created with Sketch.</desc>
    <defs></defs>
    <g id="Page-1" stroke="none" stroke-width="1" fill="none" fill-rule="evenodd">
        <path d="M18.9,0 L4.53,0 C2.02815008,-1.53194125e-16 3.06388249e-16,2.02815008 0,4.53 L0,18.9 C3.06388249e-16,21.4018499 2.02815008,23.43 4.53,23.43 L18.9,23.43 C21.4018499,23.43 23.43,21.4018499 23.43,18.9 L23.43,4.53 C23.43,2.02815008 21.4018499,1.53194125e-16 18.9,0 Z M20.2,2.7 L20.72,2.7 L20.72,6.7 L16.72,6.7 L16.72,2.7 L20.2,2.7 Z M8.37,9.31 C9.55732342,7.66601232 11.7644155,7.13050204 13.5731287,8.04755658 C15.3818419,8.96461111 16.2542567,11.0614943 15.6298107,12.9908723 C15.0053647,14.9202504 13.0697709,16.1083175 11.0667281,15.7916917 C9.06368531,15.4750659 7.58890743,13.747913 7.59,11.72 C7.5904662,10.854689 7.86336877,10.01149 8.37,9.31 L8.37,9.31 Z M21.15,18.9 C21.15,20.1426407 20.1426407,21.15 18.9,21.15 L4.53,21.15 C3.28735931,21.15 2.28,20.1426407 2.28,18.9 L2.28,9.31 L5.78,9.31 C4.68717879,11.9884126 5.52373523,15.0668839 7.82183971,16.8238325 C10.1199442,18.5807811 13.3100558,18.5807811 15.6081603,16.8238325 C17.9062648,15.0668839 18.7428212,11.9884126 17.65,9.31 L21.15,9.31 L21.15,18.9 Z" id="Shape" fill="#FF5110"></path>
    </g>
</svg>